<svg viewBox="0 0 186 49" fill="none" xmlns="http://www.w3.org/2000/svg">
<g clip-path="url(#clip0_2678_1588)">
<path d="M27.7891 24.3594C29.1068 24.8245 29.6979 24.902 31.5583 24.7373C30.6087 25.2121 30.9866 25.9582 29.4654 25.7741C28.0507 25.6093 28.4964 25.1055 27.7891 24.3594Z" fill="#fff"/>
<path d="M16.8959 9.57805C16.8959 9.57805 16.7602 8.61878 14.3281 5.58594C17.8551 6.84558 18.6691 7.3882 20.7814 9.18078C18.9501 9.17109 16.8959 9.57805 16.8959 9.57805Z" fill="#fff"/>
<path d="M38.6389 9.65708C38.6389 9.65708 39.4916 5.95566 42.4663 2.54492C38.9781 4.07588 37.1952 7.06996 36.4297 9.19198C37.6215 9.53111 38.6389 9.65708 38.6389 9.65708Z" fill="#fff"/>
<path d="M27.5505 15.6272C27.6571 15.695 27.8122 15.7434 27.8509 15.8791L27.8315 15.9082C28.0253 16.6446 28.1804 17.4682 28.1028 18.2918C28.0835 18.3112 28.0447 18.3209 28.035 18.3015C26.9304 16.9062 25.8452 15.9566 24.6243 15.3559C24.5952 15.3462 24.663 15.288 24.6921 15.288L25.2153 15.1911C26.0196 15.1621 26.8432 15.3074 27.5505 15.6272Z" fill="#fff"/>
<path d="M31.4321 15.6272C31.3255 15.695 31.1704 15.7434 31.1317 15.8791L31.1511 15.9082C30.9573 16.6446 30.8022 17.4682 30.8798 18.2918C30.8991 18.3112 30.9379 18.3209 30.9476 18.3015C32.0522 16.9062 33.1374 15.9566 34.3583 15.3559C34.3874 15.3462 34.3196 15.288 34.2905 15.288L33.7673 15.1911C32.963 15.1621 32.1394 15.3074 31.4321 15.6272Z" fill="#fff"/>
<path d="M21.9291 12.7789C21.9291 12.7789 25.7952 19.019 26.3863 23.8057C18.7218 22.6429 14.7297 23.7185 11.0089 27.73C10.2628 23.9898 10.6407 21.0538 11.0961 19.2613C13.0437 20.4531 14.9041 22.1972 14.9041 22.1972C14.9041 22.1972 12.9856 18.0985 11.193 16.1606C11.8325 14.058 13.2957 12.2363 13.2957 12.2363C13.2957 12.2363 16.939 13.9998 18.9641 17.9919C18.5184 14.1064 17.2878 10.4922 17.2878 10.4922C17.2878 10.4922 18.8187 11.6356 21.9291 12.7789Z" fill="#fff"/>
<path d="M11.2695 28.7826C11.2695 28.7826 13.3819 26.021 17.5968 25.6141C24.8834 24.9067 33.7881 33.5111 42.0824 22.7266C41.6367 27.9589 36.4334 33.356 27.4996 30.8658C22.7032 29.5287 20.775 27.4066 17.0542 27.3776C13.5369 27.3679 11.2695 28.7826 11.2695 28.7826Z" fill="#fff"/>
<path d="M38.3054 11.3125C37.5108 11.516 35.6698 12.921 35.6698 12.921C35.6698 12.921 34.9914 14.5391 34.0515 18.2793C33.2279 21.5641 32.6562 24.5872 32.6562 24.5872C32.6562 24.5872 38.5572 24.3256 41.1928 21.6804C40.001 19.7231 41.2801 15.5565 42.5494 13.9384C40.0011 14.8783 37.8693 18.444 37.8693 18.444C37.8693 18.444 36.9391 14.2 38.3054 11.3125Z" fill="#fff"/>
<path d="M23.3711 7.69967C23.3711 7.69967 25.2606 5.60672 28.9038 5.46138C32.7991 5.29666 33.6905 6.20748 33.6905 6.20748C33.6905 6.20748 32.2468 3.27153 30.803 3.06805C29.1655 2.84519 27.6733 3.42657 26.5687 4.06608C25.3671 4.75404 24.2722 5.50014 23.3711 7.69967Z" fill="#fff"/>
<path d="M23.3906 0.0270505C23.3906 0.0270505 25.8227 -0.118294 28.1094 0.627805C24.5727 1.32545 21.7433 4.37767 20.6969 7.30393C20.6484 4.92029 20.1446 2.01342 23.3906 0.0270505Z" fill="#fff"/>
<path d="M8.69179 33.7206H6.40505V39.36H5.55238V33.7206H3.26562V32.9648H8.69179V33.7206Z" fill="#fff"/>
<path d="M12.1965 39.3539H11.3923V38.8403C11.3244 38.8888 11.2275 38.9566 11.1016 39.0438C10.9756 39.131 10.8593 39.1988 10.7431 39.2473C10.6074 39.3151 10.4524 39.3636 10.278 39.412C10.1036 39.4605 9.90007 39.4798 9.66752 39.4798C9.23149 39.4798 8.87297 39.3345 8.5726 39.0535C8.27222 38.7628 8.11719 38.4043 8.11719 37.9586C8.11719 37.5904 8.19471 37.2997 8.34974 37.0768C8.50477 36.854 8.72763 36.6796 9.01832 36.5439C9.30901 36.4179 9.65783 36.3307 10.0745 36.2823C10.4814 36.2338 10.9272 36.2048 11.3923 36.1757V36.0497C11.3923 35.8656 11.3632 35.7106 11.2954 35.5943C11.2275 35.478 11.1403 35.3811 11.0144 35.3133C10.8981 35.2455 10.7624 35.2067 10.5977 35.1777C10.433 35.1583 10.2683 35.1389 10.0939 35.1389C9.88069 35.1389 9.64814 35.168 9.38652 35.2261C9.1249 35.2843 8.8536 35.3618 8.58229 35.4684H8.54353V34.6447C8.69856 34.606 8.93111 34.5575 9.2218 34.4994C9.52218 34.4509 9.81287 34.4219 10.1036 34.4219C10.4427 34.4219 10.7334 34.4509 10.9853 34.5091C11.2372 34.5672 11.4504 34.6641 11.6345 34.7901C11.8186 34.9257 11.9543 35.0905 12.0512 35.3036C12.1481 35.5168 12.1965 35.7687 12.1965 36.0788V39.3539ZM11.3923 38.1717V36.8346C11.15 36.854 10.8593 36.8733 10.5202 36.9024C10.1908 36.9315 9.91945 36.9702 9.72566 37.0284C9.49311 37.0962 9.30901 37.1931 9.16366 37.3384C9.01832 37.4741 8.95049 37.6679 8.95049 37.9101C8.95049 38.1814 9.0377 38.3946 9.20242 38.5303C9.36714 38.6659 9.61907 38.7434 9.95821 38.7434C10.2392 38.7434 10.5008 38.6853 10.7334 38.5787C10.9756 38.4624 11.1985 38.3268 11.3923 38.1717Z" fill="#fff"/>
<path d="M17.0233 37.9683C17.0233 38.4043 16.8392 38.7628 16.4807 39.0438C16.1222 39.3248 15.628 39.4605 14.9982 39.4605C14.6397 39.4605 14.3199 39.4217 14.0195 39.3345C13.7192 39.2473 13.4769 39.1601 13.2734 39.0535V38.1427H13.3122C13.5641 38.3365 13.8548 38.4915 14.1649 38.5981C14.4749 38.7144 14.7753 38.7725 15.066 38.7725C15.4245 38.7725 15.6958 38.7144 15.8993 38.5981C16.1028 38.4818 16.1997 38.3074 16.1997 38.0555C16.1997 37.8617 16.1416 37.726 16.035 37.6291C15.9284 37.5322 15.7152 37.445 15.4051 37.3772C15.2889 37.3481 15.1435 37.3191 14.9594 37.29C14.7753 37.2512 14.6106 37.2222 14.4556 37.1737C14.0389 37.0574 13.7385 36.9024 13.5641 36.6796C13.3897 36.4664 13.3025 36.1951 13.3025 35.885C13.3025 35.6912 13.3413 35.4974 13.4285 35.323C13.506 35.1486 13.632 34.9936 13.7967 34.8579C13.9614 34.7223 14.1649 34.6157 14.4071 34.5382C14.659 34.4606 14.9304 34.4219 15.2404 34.4219C15.5311 34.4219 15.8121 34.4606 16.1125 34.5285C16.4032 34.5963 16.6454 34.6835 16.8489 34.7804V35.6428H16.8101C16.6067 35.4877 16.3547 35.3618 16.0543 35.2552C15.7637 35.1486 15.473 35.1001 15.1823 35.1001C14.8916 35.1001 14.6397 35.1583 14.4362 35.2746C14.2327 35.3908 14.1261 35.5556 14.1261 35.7784C14.1261 35.9722 14.1843 36.1272 14.3102 36.2241C14.4265 36.321 14.63 36.4082 14.8916 36.4664C15.0369 36.5051 15.2114 36.5342 15.3955 36.573C15.5796 36.6117 15.7346 36.6408 15.8606 36.6699C16.2385 36.7571 16.5291 36.9024 16.7326 37.1156C16.9264 37.3384 17.0233 37.6194 17.0233 37.9683Z" fill="#fff"/>
<path d="M25.039 39.3598H24.2348V36.6273C24.2348 36.4239 24.2251 36.2204 24.2057 36.0266C24.1863 35.8328 24.1476 35.6778 24.0894 35.5712C24.0216 35.4452 23.9247 35.358 23.8084 35.2902C23.6825 35.2224 23.508 35.1933 23.2755 35.1933C23.0526 35.1933 22.8201 35.2514 22.5972 35.3677C22.3744 35.484 22.1418 35.6293 21.919 35.8037C21.9286 35.8716 21.9383 35.9491 21.9383 36.0363C21.948 36.1235 21.948 36.2107 21.948 36.2979V39.3695H21.1438V36.637C21.1438 36.4239 21.1341 36.2204 21.1147 36.0363C21.0953 35.8425 21.0566 35.6971 20.9984 35.5809C20.9306 35.4549 20.8337 35.3677 20.7174 35.2999C20.5915 35.2417 20.4171 35.203 20.1845 35.203C19.9617 35.203 19.7388 35.2611 19.5256 35.3677C19.3028 35.4743 19.0799 35.6196 18.8667 35.7844V39.3695H18.0625V34.5732H18.8667V35.1061C19.1187 34.8929 19.3706 34.7379 19.6225 34.6119C19.8745 34.4956 20.1361 34.4375 20.4268 34.4375C20.7562 34.4375 21.0275 34.5053 21.2601 34.641C21.4829 34.7766 21.6573 34.9704 21.7736 35.2127C22.1031 34.9414 22.3937 34.7379 22.6651 34.6216C22.9364 34.4956 23.227 34.4375 23.5274 34.4375C24.0507 34.4375 24.4382 34.5925 24.6902 34.9123C24.9421 35.232 25.0681 35.6778 25.0681 36.2495V39.3598H25.039Z" fill="#fff"/>
<path d="M30.0793 39.3539H29.2751V38.8403C29.2073 38.8888 29.1104 38.9566 28.9844 39.0438C28.8584 39.131 28.7422 39.1988 28.6259 39.2473C28.4902 39.3151 28.3352 39.3636 28.1608 39.412C27.9864 39.4605 27.7829 39.4798 27.5503 39.4798C27.1143 39.4798 26.7558 39.3345 26.4554 39.0535C26.155 38.7628 26 38.4043 26 37.9586C26 37.5904 26.0775 37.2997 26.2325 37.0768C26.3876 36.854 26.6104 36.6796 26.9011 36.5439C27.1918 36.4179 27.5406 36.3307 27.9573 36.2823C28.3643 36.2338 28.81 36.2048 29.2751 36.1757V36.0497C29.2751 35.8656 29.246 35.7106 29.1782 35.5943C29.1104 35.478 29.0232 35.3811 28.8972 35.3133C28.7809 35.2455 28.6453 35.2067 28.4805 35.1777C28.3158 35.1583 28.1511 35.1389 27.9767 35.1389C27.7635 35.1389 27.531 35.168 27.2693 35.2261C27.0077 35.2843 26.7364 35.3618 26.4651 35.4684H26.4263V34.6447C26.5814 34.606 26.8139 34.5575 27.1046 34.4994C27.405 34.4509 27.6957 34.4219 27.9864 34.4219C28.3255 34.4219 28.6162 34.4509 28.8681 34.5091C29.12 34.5672 29.3332 34.6641 29.5173 34.7901C29.7014 34.9257 29.8371 35.0905 29.934 35.3036C30.0309 35.5168 30.0793 35.7687 30.0793 36.0788V39.3539ZM29.2751 38.1717V36.8346C29.0328 36.854 28.7422 36.8733 28.403 36.9024C28.0736 36.9315 27.8023 36.9702 27.6085 37.0284C27.3759 37.0962 27.1918 37.1931 27.0465 37.3384C26.9011 37.4741 26.8333 37.6679 26.8333 37.9101C26.8333 38.1814 26.9205 38.3946 27.0852 38.5303C27.25 38.6659 27.5019 38.7434 27.841 38.7434C28.122 38.7434 28.3836 38.6853 28.6162 38.5787C28.8584 38.4624 29.0813 38.3268 29.2751 38.1717Z" fill="#fff"/>
<path d="M35.4081 39.3578H34.6039V36.6253C34.6039 36.4025 34.5942 36.199 34.5652 36.0052C34.5361 35.8114 34.4876 35.666 34.4198 35.5498C34.352 35.4335 34.2453 35.3366 34.1096 35.2785C33.974 35.2203 33.7996 35.1913 33.5864 35.1913C33.3635 35.1913 33.131 35.2494 32.8984 35.356C32.6562 35.4626 32.4237 35.6079 32.2105 35.7726V39.3578H31.4062V34.5614H32.2105V35.0944C32.4624 34.8812 32.724 34.7262 32.9953 34.6002C33.2666 34.4839 33.5381 34.4258 33.8287 34.4258C34.3423 34.4258 34.7395 34.5808 35.0108 34.8909C35.2821 35.2009 35.4178 35.6564 35.4178 36.2377V39.3578H35.4081Z" fill="#fff"/>
<path d="M37.5672 33.7552H36.6562V32.9219H37.5672V33.7552ZM37.5187 39.3558H36.7145V34.5594H37.5187V39.3558Z" fill="#fff"/>
<path d="M42.5871 39.3578H41.7829V38.8442C41.7151 38.8927 41.6182 38.9605 41.4922 39.0477C41.3662 39.1349 41.25 39.2027 41.1337 39.2512C40.998 39.319 40.843 39.3675 40.6686 39.4159C40.4942 39.4644 40.2907 39.4837 40.0581 39.4837C39.6221 39.4837 39.2636 39.3384 38.9632 39.0574C38.6628 38.7667 38.5078 38.4082 38.5078 37.9625C38.5078 37.5943 38.5853 37.3036 38.7404 37.0807C38.8954 36.8579 39.1183 36.6835 39.4089 36.5478C39.6996 36.4218 40.0485 36.3346 40.4651 36.2862C40.8721 36.2377 41.3178 36.2087 41.7829 36.1796V36.0536C41.7829 35.8695 41.7538 35.7145 41.686 35.5982C41.6182 35.4819 41.531 35.3851 41.405 35.3172C41.2887 35.2494 41.1531 35.2106 40.9883 35.1816C40.8236 35.1622 40.6589 35.1428 40.4845 35.1428C40.2713 35.1428 40.0388 35.1719 39.7771 35.23C39.5155 35.2882 39.2442 35.3657 38.9729 35.4723H38.9245V34.6486C39.0795 34.6099 39.3121 34.5614 39.6124 34.5033C39.9128 34.4549 40.2035 34.4258 40.4942 34.4258C40.8333 34.4258 41.124 34.4549 41.3759 34.513C41.6279 34.5711 41.841 34.668 42.0251 34.794C42.2092 34.9296 42.3449 35.0944 42.4418 35.3075C42.5387 35.5207 42.5871 35.7726 42.5871 36.0827V39.3578ZM41.7829 38.1757V36.8385C41.5407 36.8579 41.25 36.8772 40.9108 36.9063C40.5814 36.9354 40.3101 36.9741 40.1163 37.0323C39.8837 37.1001 39.6996 37.197 39.5543 37.3423C39.4089 37.478 39.3411 37.6718 39.3411 37.914C39.3411 38.1853 39.4283 38.3985 39.593 38.5342C39.7578 38.6698 40.0097 38.7473 40.3488 38.7473C40.6298 38.7473 40.8915 38.6892 41.124 38.5826C41.3662 38.4663 41.5794 38.3307 41.7829 38.1757Z" fill="#fff"/>
<path d="M47.9081 39.3578H47.1039V36.6253C47.1039 36.4025 47.0942 36.199 47.0652 36.0052C47.0361 35.8114 46.9876 35.666 46.9198 35.5498C46.852 35.4335 46.7453 35.3366 46.6096 35.2785C46.474 35.2203 46.2996 35.1913 46.0864 35.1913C45.8635 35.1913 45.631 35.2494 45.3984 35.356C45.1562 35.4626 44.9237 35.6079 44.7105 35.7726V39.3578H43.9062V34.5614H44.7105V35.0944C44.9624 34.8812 45.224 34.7262 45.4953 34.6002C45.7667 34.4839 46.0381 34.4258 46.3287 34.4258C46.8423 34.4258 47.2395 34.5808 47.5108 34.8909C47.7821 35.2009 47.9178 35.6564 47.9178 36.2377V39.3578H47.9081Z" fill="#fff"/>
<path d="M5.68779 47.8568C5.33896 48.0215 4.96107 48.1572 4.54442 48.2734C4.12776 48.3897 3.73049 48.4478 3.34291 48.4478C2.84874 48.4478 2.38364 48.38 1.97668 48.2444C1.56002 48.1087 1.2112 47.9052 0.920511 47.6242C0.629823 47.3432 0.397273 46.9944 0.24224 46.5777C0.0775167 46.1611 0 45.6766 0 45.1146C0 44.0972 0.300377 43.2833 0.891442 42.6922C1.4922 42.1012 2.30612 41.8008 3.3526 41.8008C3.7208 41.8008 4.089 41.8492 4.4669 41.9364C4.84479 42.0236 5.25176 42.169 5.69748 42.3822V43.3899H5.61996C5.53275 43.322 5.40679 43.2348 5.23238 43.1186C5.06765 43.0023 4.89324 42.9151 4.73821 42.8376C4.54442 42.7504 4.31187 42.6728 4.06963 42.6147C3.8177 42.5566 3.5367 42.5275 3.21694 42.5275C2.49991 42.5275 1.93792 42.7601 1.52126 43.2155C1.10461 43.6709 0.891442 44.3007 0.891442 45.0856C0.891442 45.9092 1.10461 46.5584 1.54064 47.0138C1.97668 47.4692 2.56774 47.7017 3.32353 47.7017C3.59484 47.7017 3.87583 47.6727 4.14714 47.6242C4.41845 47.5661 4.66069 47.4983 4.86417 47.4111V45.8413H3.12974V45.0952H5.68779V47.8568Z" fill="#fff"/>
<path d="M11.0922 45.9274C11.0922 46.7123 10.8887 47.3227 10.4914 47.7781C10.0942 48.2335 9.55156 48.4564 8.88298 48.4564C8.20471 48.4564 7.66209 48.2335 7.26482 47.7781C6.86754 47.3227 6.66406 46.7123 6.66406 45.9274C6.66406 45.1426 6.86754 44.5321 7.26482 44.0767C7.66209 43.6213 8.20471 43.3984 8.88298 43.3984C9.55156 43.3984 10.0942 43.6213 10.4914 44.0767C10.8887 44.5321 11.0922 45.1523 11.0922 45.9274ZM10.2589 45.9274C10.2589 45.3073 10.1329 44.8422 9.8907 44.5418C9.64846 44.2414 9.30932 44.0864 8.87329 44.0864C8.43726 44.0864 8.09812 44.2414 7.85588 44.5418C7.61364 44.8422 7.49737 45.3073 7.49737 45.9274C7.49737 46.5282 7.62333 46.9836 7.86557 47.2936C8.10781 47.6037 8.44695 47.7588 8.88298 47.7588C9.30932 47.7588 9.64846 47.6037 9.8907 47.2936C10.1329 46.9933 10.2589 46.5379 10.2589 45.9274Z" fill="#fff"/>
<path d="M16.141 43.5215L14.2031 48.3275H13.3892L11.4609 43.5215H12.333L13.8252 47.3489L15.298 43.5215H16.141Z" fill="#fff"/>
<path d="M20.8644 46.0148H17.3277C17.3277 46.3055 17.3761 46.5671 17.4633 46.79C17.5505 47.0128 17.6765 47.1872 17.8315 47.3326C17.9769 47.4682 18.161 47.5748 18.3645 47.6426C18.5679 47.7105 18.7908 47.7492 19.0427 47.7492C19.3722 47.7492 19.7016 47.6814 20.0311 47.5554C20.3605 47.4295 20.5931 47.2938 20.7384 47.1678H20.7772V48.0496C20.5059 48.1659 20.2249 48.2628 19.9439 48.3403C19.6629 48.4178 19.3625 48.4566 19.0524 48.4566C18.2579 48.4566 17.6377 48.2434 17.192 47.8074C16.7463 47.381 16.5234 46.7609 16.5234 45.976C16.5234 45.1912 16.7366 44.571 17.163 44.1059C17.5893 43.6408 18.1513 43.418 18.8489 43.418C19.4981 43.418 19.9923 43.6118 20.3411 43.9897C20.69 44.3676 20.8644 44.9005 20.8644 45.5981V46.0148ZM20.0795 45.3946C20.0795 44.9683 19.9729 44.6389 19.7598 44.4063C19.5466 44.1738 19.2268 44.0575 18.8005 44.0575C18.3645 44.0575 18.0253 44.1834 17.7637 44.4354C17.5118 44.6873 17.3664 45.0071 17.3277 45.385H20.0795V45.3946Z" fill="#fff"/>
<path d="M24.9414 44.4033H24.9027C24.7864 44.3742 24.6701 44.3549 24.5538 44.3452C24.4376 44.3355 24.3116 44.3258 24.1566 44.3258C23.9046 44.3258 23.6624 44.3839 23.4395 44.4905C23.207 44.5971 22.9841 44.7424 22.771 44.9169V48.3276H21.957V43.5312H22.7613V44.2386C23.081 43.977 23.362 43.8026 23.614 43.696C23.8562 43.5894 24.1081 43.5312 24.36 43.5312C24.5054 43.5312 24.6023 43.5313 24.6701 43.5409C24.7379 43.5506 24.8251 43.5603 24.9511 43.5797V44.4033H24.9414Z" fill="#fff"/>
<path d="M29.6698 48.3286H28.8655V45.5961C28.8655 45.3732 28.8558 45.1698 28.8268 44.976C28.7977 44.7822 28.7493 44.6271 28.6814 44.5206C28.6136 44.4043 28.507 44.3074 28.3714 44.2492C28.2357 44.1911 28.0613 44.162 27.8481 44.162C27.6253 44.162 27.3927 44.2202 27.1602 44.3268C26.9179 44.4333 26.6854 44.5787 26.4722 44.7434V48.3286H25.668V43.5322H26.4722V44.0651C26.7241 43.8617 26.9858 43.6969 27.2571 43.5807C27.5284 43.4644 27.7997 43.4062 28.0904 43.4062C28.6136 43.4062 29.0012 43.5613 29.2725 43.8713C29.5438 44.1814 29.6795 44.6368 29.6795 45.2182V48.3286H29.6698Z" fill="#fff"/>
<path d="M37.9843 48.3286H37.1801V45.5961C37.1801 45.3926 37.1704 45.1891 37.151 44.9953C37.1316 44.8016 37.0929 44.6465 37.0347 44.5399C36.9669 44.414 36.87 44.3268 36.7537 44.2589C36.6278 44.1911 36.4534 44.162 36.2208 44.162C35.998 44.162 35.7654 44.2202 35.5425 44.3268C35.3197 44.443 35.0871 44.5787 34.8643 44.7628C34.874 44.8306 34.8836 44.9081 34.8836 44.9953C34.8933 45.0826 34.8933 45.1698 34.8933 45.257V48.3286H34.0891V45.5961C34.0891 45.3829 34.0794 45.1794 34.06 44.9953C34.0407 44.8016 34.0019 44.6562 33.9438 44.5399C33.8759 44.414 33.779 44.3268 33.6628 44.2589C33.5368 44.2008 33.3624 44.162 33.1298 44.162C32.907 44.162 32.6841 44.2202 32.4709 44.3268C32.2481 44.4333 32.0252 44.5787 31.812 44.7434V48.3286H31.0078V43.5322H31.812V44.0651C32.064 43.8617 32.3159 43.6969 32.5678 43.5807C32.8198 43.4644 33.0814 43.4062 33.3721 43.4062C33.7015 43.4062 33.9728 43.4741 34.2054 43.6097C34.4282 43.7454 34.6026 43.9392 34.7092 44.1814C35.0387 43.9101 35.3294 43.7066 35.6007 43.5904C35.872 43.4644 36.1627 43.4062 36.4631 43.4062C36.9863 43.4062 37.3739 43.5613 37.6258 43.881C37.8777 44.2008 38.0037 44.6465 38.0037 45.2182V48.3286H37.9843Z" fill="#fff"/>
<path d="M43.3722 46.0148H39.8355C39.8355 46.3055 39.8839 46.5671 39.9711 46.79C40.0583 47.0128 40.1843 47.1872 40.3393 47.3326C40.4847 47.4682 40.6688 47.5748 40.8723 47.6426C41.0758 47.7105 41.2986 47.7492 41.5505 47.7492C41.88 47.7492 42.2094 47.6814 42.5389 47.5554C42.8683 47.4295 43.101 47.2938 43.2463 47.1678H43.285V48.0496C43.0137 48.1659 42.7327 48.2628 42.4517 48.3403C42.1707 48.4178 41.8703 48.4566 41.5602 48.4566C40.7657 48.4566 40.1456 48.2434 39.6998 47.8074C39.2541 47.381 39.0312 46.7609 39.0312 45.976C39.0312 45.1912 39.2444 44.571 39.6708 44.1059C40.0971 43.6408 40.6591 43.418 41.3568 43.418C42.006 43.418 42.5001 43.6118 42.8489 43.9897C43.1978 44.3676 43.3722 44.9005 43.3722 45.5981V46.0148ZM42.5873 45.3946C42.5873 44.9683 42.4808 44.6389 42.2677 44.4063C42.0545 44.1738 41.7346 44.0575 41.3083 44.0575C40.8723 44.0575 40.5331 44.1834 40.2715 44.4354C40.0196 44.6873 39.8742 45.0071 39.8355 45.385H42.5873V45.3946Z" fill="#fff"/>
<path d="M48.4705 48.3286H47.6663V45.5961C47.6663 45.3732 47.6566 45.1698 47.6276 44.976C47.5985 44.7822 47.55 44.6271 47.4822 44.5206C47.4144 44.4043 47.3078 44.3074 47.1721 44.2492C47.0365 44.1911 46.862 44.162 46.6488 44.162C46.4259 44.162 46.2031 44.2202 45.9608 44.3268C45.7186 44.4333 45.4861 44.5787 45.2729 44.7434V48.3286H44.4688V43.5322H45.2729V44.0651C45.5248 43.8617 45.7865 43.6969 46.0578 43.5807C46.3292 43.4644 46.6005 43.4062 46.8911 43.4062C47.4047 43.4062 47.8019 43.5613 48.0732 43.8713C48.3445 44.1814 48.4802 44.6368 48.4802 45.2182V48.3286H48.4705Z" fill="#fff"/>
<path d="M52.2655 48.2819C52.1105 48.3207 51.9457 48.3595 51.7713 48.3788C51.5969 48.4079 51.4322 48.4176 51.2965 48.4176C50.8121 48.4176 50.4342 48.2819 50.1822 48.0203C49.9303 47.7587 49.8043 47.3324 49.8043 46.751V44.2026H49.2617V43.5244H49.8043V42.1484H50.6086V43.5244H52.2752V44.2026H50.6086V46.3925C50.6086 46.6444 50.6183 46.8382 50.628 46.9835C50.6376 47.1289 50.6764 47.2548 50.7442 47.3808C50.8024 47.4971 50.8896 47.5746 51.0058 47.6327C51.1124 47.6812 51.2868 47.7103 51.5097 47.7103C51.6454 47.7103 51.781 47.6909 51.9264 47.6521C52.0717 47.6134 52.1686 47.5843 52.2364 47.5552H52.2752V48.2819H52.2655Z" fill="#fff"/>
</g>
<line x1="61.5" y1="0.5" x2="61.5" y2="48.5" stroke="#ccc"/>
<g clip-path="url(#clip1_2678_1588)">
<path d="M77.9452 21.2024C76.6126 21.2024 75.3541 21.0451 74.1696 20.7304C73.0036 20.3973 71.995 19.9161 71.1436 19.2868C70.8475 19.0833 70.6717 18.8427 70.6161 18.5651C70.5606 18.2874 70.5884 18.0283 70.6994 17.7877C70.829 17.5471 71.0141 17.3898 71.2547 17.3158C71.4953 17.2232 71.7729 17.2788 72.0875 17.4824C72.9203 18.0931 73.8087 18.528 74.7526 18.7871C75.6965 19.0463 76.7607 19.1758 77.9452 19.1758C79.6108 19.1758 80.8416 18.8704 81.6374 18.2597C82.4517 17.6304 82.8589 16.8068 82.8589 15.7889C82.8589 14.9746 82.5628 14.3268 81.9705 13.8456C81.3968 13.3644 80.4252 12.985 79.0556 12.7074L76.1684 12.1244C74.4287 11.7542 73.1239 11.1527 72.2541 10.3199C71.4027 9.46855 70.977 8.33958 70.977 6.933C70.977 5.76702 71.2732 4.7491 71.8654 3.87924C72.4762 3.00938 73.3183 2.33386 74.3917 1.85266C75.4651 1.37146 76.7052 1.13086 78.1117 1.13086C79.2777 1.13086 80.3604 1.29743 81.3598 1.63057C82.3777 1.9452 83.2938 2.42639 84.1082 3.07416C84.3673 3.27775 84.5153 3.51834 84.5524 3.79596C84.6079 4.05507 84.5709 4.29567 84.4413 4.51776C84.3118 4.73985 84.1267 4.88791 83.8861 4.96194C83.6455 5.01746 83.3586 4.94343 83.0255 4.73985C82.2852 4.16611 81.5078 3.75894 80.6935 3.51834C79.8977 3.27775 79.0278 3.15745 78.084 3.15745C76.6219 3.15745 75.4559 3.49984 74.586 4.18462C73.7162 4.85089 73.2812 5.73926 73.2812 6.84972C73.2812 7.73809 73.5496 8.44138 74.0863 8.95959C74.6416 9.4778 75.5392 9.85721 76.7792 10.0978L79.6663 10.7086C81.5356 11.0972 82.9144 11.6895 83.8028 12.4853C84.7097 13.2626 85.1631 14.3268 85.1631 15.6779C85.1631 16.7698 84.867 17.7322 84.2747 18.5651C83.701 19.3979 82.8682 20.0457 81.7762 20.5084C80.7028 20.971 79.4257 21.2024 77.9452 21.2024Z" fill="#fff"/>
<path d="M94.4697 21.2024C92.3413 21.2024 90.6571 20.5824 89.4171 19.3424C88.1771 18.0839 87.5571 16.3812 87.5571 14.2343C87.5571 12.8462 87.8347 11.6247 88.3899 10.5698C88.9452 9.49632 89.704 8.67273 90.6664 8.09899C91.6473 7.50675 92.7762 7.21063 94.0533 7.21063C95.8855 7.21063 97.3199 7.80287 98.3563 8.98736C99.3927 10.1533 99.9109 11.7635 99.9109 13.8178C99.9109 14.3916 99.5871 14.6784 98.9393 14.6784H89.7503C89.8243 16.2146 90.2685 17.3898 91.0828 18.2042C91.8971 19 93.0261 19.3979 94.4697 19.3979C95.0805 19.3979 95.7005 19.3239 96.3297 19.1758C96.959 19.0092 97.5697 18.7224 98.162 18.3152C98.5876 18.0376 98.9393 17.9821 99.2169 18.1486C99.513 18.3152 99.6611 18.5743 99.6611 18.9259C99.6796 19.2591 99.4945 19.5552 99.1059 19.8143C98.4951 20.2585 97.7641 20.6009 96.9127 20.8415C96.0799 21.0821 95.2655 21.2024 94.4697 21.2024ZM94.1088 8.87631C92.8318 8.87631 91.8231 9.27423 91.0828 10.0701C90.3425 10.8659 89.9076 11.9116 89.778 13.2071H97.9676C97.9121 11.8375 97.5512 10.7733 96.8849 10.0145C96.2372 9.25572 95.3118 8.87631 94.1088 8.87631Z" fill="#fff"/>
<path d="M104.304 21.1469C103.545 21.1469 103.166 20.7582 103.166 19.9809V8.40435C103.166 7.64554 103.526 7.26613 104.248 7.26613C104.989 7.26613 105.359 7.64554 105.359 8.40435V9.87571C105.729 9.02436 106.303 8.37659 107.08 7.93241C107.857 7.46971 108.783 7.21986 109.856 7.18285C110.448 7.12732 110.763 7.42345 110.8 8.07121C110.855 8.71898 110.522 9.07988 109.801 9.15391L109.356 9.20943C108.079 9.32048 107.108 9.72765 106.441 10.4309C105.775 11.1157 105.442 12.0596 105.442 13.2626V19.9809C105.442 20.7582 105.063 21.1469 104.304 21.1469Z" fill="#fff"/>
<path d="M118.98 21.1469C118.333 21.1469 117.851 20.786 117.537 20.0642L112.734 8.84851C112.549 8.42284 112.54 8.05269 112.706 7.73806C112.873 7.42343 113.206 7.26611 113.706 7.26611C114.224 7.26611 114.603 7.56223 114.844 8.15448L119.036 18.3985L123.283 8.15448C123.413 7.82134 123.561 7.58999 123.727 7.46044C123.894 7.33089 124.135 7.26611 124.449 7.26611C124.875 7.26611 125.162 7.42343 125.31 7.73806C125.458 8.05269 125.449 8.41358 125.282 8.82075L120.424 20.0642C120.128 20.786 119.647 21.1469 118.98 21.1469Z" fill="#fff"/>
<path d="M129.354 4.21237C128.373 4.21237 127.882 3.74968 127.882 2.8243C127.882 1.91742 128.373 1.46399 129.354 1.46399C130.335 1.46399 130.825 1.91742 130.825 2.8243C130.825 3.74968 130.335 4.21237 129.354 4.21237ZM129.354 21.0913C128.613 21.0913 128.243 20.6842 128.243 19.8698V8.5154C128.243 7.71957 128.613 7.32165 129.354 7.32165C130.113 7.32165 130.492 7.71957 130.492 8.5154V19.8698C130.492 20.6842 130.113 21.0913 129.354 21.0913Z" fill="#fff"/>
<path d="M140.414 21.2024C139.063 21.2024 137.897 20.9155 136.916 20.3418C135.935 19.7495 135.176 18.9259 134.64 17.871C134.121 16.7976 133.862 15.5483 133.862 14.1232C133.862 11.9763 134.445 10.2922 135.611 9.07064C136.777 7.83063 138.378 7.21063 140.414 7.21063C141.08 7.21063 141.774 7.32167 142.496 7.54377C143.218 7.74735 143.875 8.08974 144.467 8.57094C144.782 8.79303 144.911 9.07064 144.856 9.40378C144.819 9.73692 144.662 9.98677 144.384 10.1533C144.125 10.3199 143.819 10.2829 143.468 10.0423C142.968 9.67214 142.468 9.41304 141.969 9.26497C141.488 9.11691 141.016 9.04288 140.553 9.04288C139.146 9.04288 138.064 9.48707 137.305 10.3754C136.546 11.2453 136.167 12.5038 136.167 14.151C136.167 15.7611 136.546 17.0382 137.305 17.9821C138.064 18.9074 139.146 19.3701 140.553 19.3701C141.016 19.3701 141.488 19.2961 141.969 19.148C142.468 19 142.968 18.7409 143.468 18.3707C143.819 18.1301 144.125 18.1024 144.384 18.2874C144.643 18.454 144.782 18.7039 144.8 19.037C144.837 19.3701 144.708 19.6385 144.412 19.8421C143.819 20.3233 143.172 20.6749 142.468 20.897C141.765 21.1006 141.08 21.2024 140.414 21.2024Z" fill="#fff"/>
<path d="M153.354 21.2024C151.226 21.2024 149.542 20.5824 148.302 19.3424C147.062 18.0839 146.442 16.3812 146.442 14.2343C146.442 12.8462 146.72 11.6247 147.275 10.5698C147.83 9.49632 148.589 8.67273 149.551 8.09899C150.532 7.50675 151.661 7.21063 152.938 7.21063C154.77 7.21063 156.205 7.80287 157.241 8.98736C158.278 10.1533 158.796 11.7635 158.796 13.8178C158.796 14.3916 158.472 14.6784 157.824 14.6784H148.635C148.709 16.2146 149.153 17.3898 149.968 18.2042C150.782 19 151.911 19.3979 153.354 19.3979C153.965 19.3979 154.585 19.3239 155.215 19.1758C155.844 19.0092 156.455 18.7224 157.047 18.3152C157.472 18.0376 157.824 17.9821 158.102 18.1486C158.398 18.3152 158.546 18.5743 158.546 18.9259C158.564 19.2591 158.379 19.5552 157.991 19.8143C157.38 20.2585 156.649 20.6009 155.797 20.8415C154.965 21.0821 154.15 21.2024 153.354 21.2024ZM152.994 8.87631C151.717 8.87631 150.708 9.27423 149.968 10.0701C149.227 10.8659 148.792 11.9116 148.663 13.2071H156.852C156.797 11.8375 156.436 10.7733 155.77 10.0145C155.122 9.25572 154.197 8.87631 152.994 8.87631Z" fill="#fff"/>
<path d="M77.5567 48.2774C76.7979 48.2774 76.4184 47.8795 76.4184 47.0836V30.4823H70.1721C69.4688 30.4823 69.1172 30.1491 69.1172 29.4829C69.1172 28.8351 69.4688 28.5112 70.1721 28.5112H84.969C85.6723 28.5112 86.0239 28.8351 86.0239 29.4829C86.0239 30.1491 85.6723 30.4823 84.969 30.4823H78.7226V47.0836C78.7226 47.8795 78.334 48.2774 77.5567 48.2774Z" fill="#fff"/>
<path d="M90.1434 48.3329C89.2181 48.3329 88.3852 48.1571 87.6449 47.8054C86.9231 47.4353 86.3494 46.9356 85.9237 46.3063C85.498 45.677 85.2852 44.9738 85.2852 44.1964C85.2852 43.2155 85.535 42.4382 86.0348 41.8645C86.553 41.2907 87.3951 40.8836 88.561 40.643C89.7455 40.3839 91.3557 40.2543 93.3915 40.2543H94.2799V39.3937C94.2799 38.2462 94.0393 37.4226 93.5581 36.9229C93.0954 36.4047 92.3459 36.1456 91.3094 36.1456C90.6617 36.1456 90.0046 36.2289 89.3384 36.3955C88.6906 36.562 88.0151 36.8304 87.3118 37.2006C86.9972 37.3671 86.7288 37.4041 86.5067 37.3116C86.3031 37.2006 86.1551 37.034 86.0625 36.8119C85.9885 36.5713 85.9885 36.3307 86.0625 36.0901C86.1551 35.831 86.3401 35.6367 86.6177 35.5071C87.4136 35.0999 88.2094 34.8038 89.0052 34.6187C89.8196 34.4337 90.5876 34.3411 91.3094 34.3411C93.0491 34.3411 94.3354 34.7668 95.1683 35.6182C96.0196 36.4695 96.4453 37.7928 96.4453 39.588V47.1114C96.4453 47.8887 96.1029 48.2774 95.4181 48.2774C94.6963 48.2774 94.3354 47.8887 94.3354 47.1114V45.7511C93.9838 46.5469 93.4378 47.1762 92.6975 47.6389C91.9757 48.1015 91.1244 48.3329 90.1434 48.3329ZM90.5043 46.6394C91.6148 46.6394 92.5217 46.26 93.225 45.5012C93.9283 44.7239 94.2799 43.743 94.2799 42.5585V41.7257H93.4193C91.9202 41.7257 90.7357 41.7997 89.8658 41.9478C89.0145 42.0773 88.413 42.3179 88.0613 42.6696C87.7282 43.0027 87.5616 43.4654 87.5616 44.0576C87.5616 44.8164 87.8207 45.4365 88.339 45.9177C88.8757 46.3988 89.5975 46.6394 90.5043 46.6394Z" fill="#fff"/>
<path d="M105.17 48.3329C104.337 48.3329 103.495 48.2311 102.644 48.0275C101.811 47.8054 101.034 47.4538 100.312 46.9726C99.9786 46.769 99.812 46.5099 99.812 46.1953C99.8305 45.8621 99.9601 45.603 100.201 45.4179C100.441 45.2329 100.747 45.2329 101.117 45.4179C101.839 45.8621 102.533 46.1768 103.199 46.3618C103.884 46.5284 104.559 46.6117 105.226 46.6117C106.28 46.6117 107.076 46.4174 107.613 46.0287C108.15 45.64 108.418 45.1126 108.418 44.4463C108.418 43.9281 108.242 43.5209 107.891 43.2248C107.539 42.9102 106.984 42.6696 106.225 42.503L103.699 41.9478C101.404 41.4481 100.256 40.2636 100.256 38.3943C100.256 37.1728 100.737 36.1919 101.7 35.4516C102.681 34.7113 103.958 34.3411 105.531 34.3411C106.327 34.3411 107.095 34.4522 107.835 34.6743C108.575 34.8778 109.242 35.211 109.834 35.6737C110.149 35.8958 110.287 36.1641 110.25 36.4788C110.213 36.7934 110.065 37.0432 109.806 37.2283C109.566 37.3949 109.269 37.3671 108.918 37.145C108.363 36.7749 107.798 36.5065 107.224 36.34C106.651 36.1549 106.086 36.0623 105.531 36.0623C104.495 36.0623 103.708 36.2659 103.171 36.6731C102.634 37.0803 102.366 37.617 102.366 38.2833C102.366 39.3197 103.051 39.986 104.42 40.2821L106.947 40.8095C108.131 41.0686 109.029 41.4851 109.64 42.0588C110.25 42.614 110.556 43.3728 110.556 44.3352C110.556 45.5753 110.065 46.5562 109.084 47.278C108.103 47.9813 106.799 48.3329 105.17 48.3329Z" fill="#fff"/>
<path d="M115.148 48.2774C114.408 48.2774 114.038 47.8887 114.038 47.1114V35.5349C114.038 34.7761 114.399 34.3966 115.121 34.3966C115.861 34.3966 116.231 34.7761 116.231 35.5349V36.8674C116.638 36.0531 117.203 35.4331 117.925 35.0074C118.646 34.5632 119.489 34.3411 120.451 34.3411C122.561 34.3411 123.912 35.2573 124.504 37.0895C124.911 36.2382 125.513 35.5719 126.309 35.0907C127.104 34.591 128.021 34.3411 129.057 34.3411C132.055 34.3411 133.554 36.1179 133.554 39.6713V47.1114C133.554 47.8887 133.175 48.2774 132.416 48.2774C131.676 48.2774 131.306 47.8887 131.306 47.1114V39.7824C131.306 38.5424 131.084 37.6355 130.639 37.0617C130.214 36.4695 129.501 36.1734 128.502 36.1734C127.41 36.1734 126.54 36.562 125.892 37.3394C125.244 38.1167 124.92 39.1531 124.92 40.4486V47.1114C124.92 47.8887 124.541 48.2774 123.782 48.2774C123.042 48.2774 122.672 47.8887 122.672 47.1114V39.7824C122.672 38.5424 122.45 37.6355 122.006 37.0617C121.58 36.4695 120.867 36.1734 119.868 36.1734C118.757 36.1734 117.878 36.562 117.231 37.3394C116.601 38.1167 116.287 39.1531 116.287 40.4486V47.1114C116.287 47.8887 115.907 48.2774 115.148 48.2774Z" fill="#fff"/>
<path d="M142.006 48.3329C141.081 48.3329 140.248 48.1571 139.508 47.8054C138.786 47.4353 138.212 46.9356 137.787 46.3063C137.361 45.677 137.148 44.9738 137.148 44.1964C137.148 43.2155 137.398 42.4382 137.898 41.8645C138.416 41.2907 139.258 40.8836 140.424 40.643C141.608 40.3839 143.218 40.2543 145.254 40.2543H146.143V39.3937C146.143 38.2462 145.902 37.4226 145.421 36.9229C144.958 36.4047 144.209 36.1456 143.172 36.1456C142.524 36.1456 141.867 36.2289 141.201 36.3955C140.553 36.562 139.878 36.8304 139.175 37.2006C138.86 37.3671 138.592 37.4041 138.369 37.3116C138.166 37.2006 138.018 37.034 137.925 36.8119C137.851 36.5713 137.851 36.3307 137.925 36.0901C138.018 35.831 138.203 35.6367 138.481 35.5071C139.276 35.0999 140.072 34.8038 140.868 34.6187C141.682 34.4337 142.45 34.3411 143.172 34.3411C144.912 34.3411 146.198 34.7668 147.031 35.6182C147.882 36.4695 148.308 37.7928 148.308 39.588V47.1114C148.308 47.8887 147.966 48.2774 147.281 48.2774C146.559 48.2774 146.198 47.8887 146.198 47.1114V45.7511C145.847 46.5469 145.301 47.1762 144.56 47.6389C143.839 48.1015 142.987 48.3329 142.006 48.3329ZM142.367 46.6394C143.478 46.6394 144.384 46.26 145.088 45.5012C145.791 44.7239 146.143 43.743 146.143 42.5585V41.7257H145.282C143.783 41.7257 142.598 41.7997 141.729 41.9478C140.877 42.0773 140.276 42.3179 139.924 42.6696C139.591 43.0027 139.424 43.4654 139.424 44.0576C139.424 44.8164 139.684 45.4365 140.202 45.9177C140.738 46.3988 141.46 46.6394 142.367 46.6394Z" fill="#fff"/>
<path d="M153.59 48.2774C152.85 48.2774 152.48 47.8887 152.48 47.1114V35.5349C152.48 34.7761 152.841 34.3966 153.563 34.3966C154.303 34.3966 154.673 34.7761 154.673 35.5349V36.8952C155.117 36.0438 155.747 35.4053 156.561 34.9796C157.375 34.554 158.291 34.3411 159.309 34.3411C162.511 34.3411 164.112 36.1179 164.112 39.6713V47.1114C164.112 47.8887 163.742 48.2774 163.002 48.2774C162.243 48.2774 161.863 47.8887 161.863 47.1114V39.8101C161.863 38.5516 161.614 37.6355 161.114 37.0617C160.633 36.4695 159.855 36.1734 158.782 36.1734C157.542 36.1734 156.552 36.562 155.811 37.3394C155.09 38.0982 154.729 39.1161 154.729 40.3931V47.1114C154.729 47.8887 154.349 48.2774 153.59 48.2774Z" fill="#fff"/>
<path d="M169.369 31.3429C168.388 31.3429 167.897 30.8802 167.897 29.9548C167.897 29.0479 168.388 28.5945 169.369 28.5945C170.35 28.5945 170.84 29.0479 170.84 29.9548C170.84 30.8802 170.35 31.3429 169.369 31.3429ZM169.369 48.2219C168.629 48.2219 168.258 47.8147 168.258 47.0003V35.6459C168.258 34.8501 168.629 34.4522 169.369 34.4522C170.128 34.4522 170.507 34.8501 170.507 35.6459V47.0003C170.507 47.8147 170.128 48.2219 169.369 48.2219Z" fill="#fff"/>
<path d="M178.958 48.3329C178.033 48.3329 177.2 48.1571 176.46 47.8054C175.738 47.4353 175.164 46.9356 174.739 46.3063C174.313 45.677 174.1 44.9738 174.1 44.1964C174.1 43.2155 174.35 42.4382 174.85 41.8645C175.368 41.2907 176.21 40.8836 177.376 40.643C178.56 40.3839 180.171 40.2543 182.206 40.2543H183.095V39.3937C183.095 38.2462 182.854 37.4226 182.373 36.9229C181.91 36.4047 181.161 36.1456 180.124 36.1456C179.477 36.1456 178.82 36.2289 178.153 36.3955C177.506 36.562 176.83 36.8304 176.127 37.2006C175.812 37.3671 175.544 37.4041 175.322 37.3116C175.118 37.2006 174.97 37.034 174.877 36.8119C174.803 36.5713 174.803 36.3307 174.877 36.0901C174.97 35.831 175.155 35.6367 175.433 35.5071C176.229 35.0999 177.024 34.8038 177.82 34.6187C178.635 34.4337 179.403 34.3411 180.124 34.3411C181.864 34.3411 183.15 34.7668 183.983 35.6182C184.835 36.4695 185.26 37.7928 185.26 39.588V47.1114C185.26 47.8887 184.918 48.2774 184.233 48.2774C183.511 48.2774 183.15 47.8887 183.15 47.1114V45.7511C182.799 46.5469 182.253 47.1762 181.512 47.6389C180.791 48.1015 179.939 48.3329 178.958 48.3329ZM179.319 46.6394C180.43 46.6394 181.337 46.26 182.04 45.5012C182.743 44.7239 183.095 43.743 183.095 42.5585V41.7257H182.234C180.735 41.7257 179.551 41.7997 178.681 41.9478C177.829 42.0773 177.228 42.3179 176.876 42.6696C176.543 43.0027 176.377 43.4654 176.377 44.0576C176.377 44.8164 176.636 45.4365 177.154 45.9177C177.691 46.3988 178.412 46.6394 179.319 46.6394Z" fill="#fff"/>
</g>
<defs>
<clipPath id="clip0_2678_1588">
<rect width="53" height="49" fill="white"/>
</clipPath>
<clipPath id="clip1_2678_1588">
<rect width="117" height="48" fill="white" transform="translate(69 0.5)"/>
</clipPath>
</defs>
</svg>
