<svg width="36" height="40" viewBox="0 0 36 40" fill="none" xmlns="http://www.w3.org/2000/svg">
<path d="M35.3613 36.916L32.0707 39.0881C29.9523 40.5469 20.9253 42.1869 8.64417 27.309C-3.19534 12.9853 0.190118 5.04208 1.77819 3.21028L4.51078 0.370057C5.15505 -0.179371 6.12708 -0.114746 6.68092 0.548936L13.8676 9.05019L13.872 9.0546C14.3978 9.67748 14.3806 10.6471 13.6889 11.2311V11.2375L10.504 13.5347C9.24323 14.7847 10.3423 16.7521 11.6311 18.6527L17.7597 25.889C20.6107 28.641 22.173 29.9124 23.5372 29.003L26.1858 26.0485C26.8344 25.5033 27.8021 25.5701 28.3559 26.2296L35.547 34.7309V34.7353C36.0702 35.3601 36.0508 36.3278 35.3613 36.916Z" fill="white"/>
</svg>
