<svg width="56" height="64" viewBox="0 0 56 64" fill="none" xmlns="http://www.w3.org/2000/svg">
<path d="M21.1658 19.2617C22.4322 19.7592 23.6987 20.2652 24.9916 20.7563C28.0807 21.9306 31.5782 22.3972 34.8647 21.7299C41.2709 20.4285 41.7754 15.2176 47.3932 16.5361C53.0111 17.8546 52.6322 25.664 51.1135 30.9486C49.5948 36.2332 46.9278 37.2591 46.3136 41.6213C45.6993 45.9835 46.664 46.7703 45.083 50.3457C43.502 53.9211 44.2324 51.2595 41.3965 50.603C38.5607 49.9464 38.6145 49.9432 36.1291 54.4367C33.6436 58.9302 32.8521 60.6928 29.1635 60.0949C25.4749 59.4971 24.6844 62.1148 22.6359 58.8426C20.5874 55.5705 20.6465 56.4203 16.6086 51.5286C15.2239 49.8503 13.5015 48.0568 12.73 45.9707C11.9585 43.8846 13.4572 42.4615 14.0018 40.5836C14.2683 39.6317 14.3255 38.6323 14.1692 37.6557C14.013 36.6791 13.6471 35.749 13.0973 34.9307C11.0309 31.8529 9.69579 28.0512 8.72906 24.6722C8.38605 23.4733 7.96073 22.2488 7.80559 21.005C7.63778 19.662 7.99134 16.6375 9.55648 16.0674C11.1913 15.4706 13.6451 16.6589 15.1754 17.1222C17.2228 17.7446 19.1954 18.4919 21.1658 19.2617Z" fill="white"/>
<path d="M46.5871 8.86105C46.5871 8.86959 46.5871 8.87813 46.5871 8.8856C46.5396 9.52616 46.946 9.72686 47.3259 10.1443C47.8973 10.7775 48.2599 11.5748 48.3633 12.4257C48.4256 12.872 48.452 13.3321 48.6968 13.7303C48.814 13.9271 48.9937 14.0776 49.2066 14.1574C49.6805 14.3239 50.0657 14.0378 50.395 13.7303C50.7897 13.3588 51.0926 13.0973 51.5918 12.8891C52.1649 12.651 52.2894 11.7286 51.6868 11.4265C51.4335 11.2994 50.8519 11.3966 50.8572 10.9717C50.8636 10.487 51.6773 10.3076 51.7638 9.84323C51.8778 9.23364 51.8155 8.64112 51.2688 8.27494C50.9849 8.08491 50.6556 7.98028 50.3475 7.83616C49.1644 7.28314 49.1338 5.85471 48.3549 4.94085C48.0962 4.63686 47.7622 4.40803 47.3871 4.27787C46.052 3.82308 45.8188 5.68709 44.9502 6.19954C44.8588 6.24136 44.776 6.30042 44.7064 6.37356C44.4953 6.64899 44.9302 6.76963 45.1138 6.79419C45.537 6.85915 45.9222 7.07775 46.1977 7.40912C46.5565 7.83723 46.6241 8.32725 46.5871 8.86105Z" fill="white"/>
<path d="M6.03042 4.19782C6.23095 4.22237 6.47685 4.36009 6.78608 4.5277C7.14069 4.7188 7.57235 4.98143 7.6304 5.42768C7.75071 6.34368 7.04254 7.2095 7.2895 8.11481C7.43515 8.64861 8.20875 8.89736 8.17498 9.45891C8.14887 9.68854 8.06812 9.90834 7.93963 10.0995C7.60708 10.6659 7.16266 11.1569 6.63411 11.5418C6.31749 11.766 5.20933 12.4898 4.98559 11.8194C4.82834 11.3464 5.10907 10.8446 5.1534 10.377C5.20089 9.87314 4.94232 9.46745 4.7038 9.04789C4.44734 8.59096 4.80934 8.06037 4.78084 7.57675C4.75762 7.20736 4.52755 7.0974 4.41673 6.78246C4.2637 6.35542 4.57926 6.017 4.90221 5.76931C5.22516 5.52163 5.33598 5.23552 5.44257 4.85012C5.58716 4.32059 5.7708 4.16365 6.03042 4.19782Z" fill="white"/>
</svg>
